<?xml version="1.0" encoding="UTF-8"?><svg id="_イヤー_1" xmlns="http://www.w3.org/2000/svg" xmlns:xlink="http://www.w3.org/1999/xlink" viewBox="0 0 1366 768"><defs><style>.cls-1{fill:url(#_称未設定グラデーション_9);}.cls-2{fill:none;stroke:#000;stroke-miterlimit:10;stroke-width:.71px;}</style><linearGradient id="_称未設定グラデーション_9" x1="679.22" y1="220.43" x2="679.22" y2="465.96" gradientTransform="matrix(1, 0, 0, 1, 0, 0)" gradientUnits="userSpaceOnUse"><stop offset=".11" stop-color="#c1272d"/><stop offset=".23" stop-color="#b92536"/><stop offset=".81" stop-color="blue"/><stop offset="1" stop-color="#000"/></linearGradient></defs><g><path d="M80.11,465.96c-14.76,0-27.89-7.33-39.38-22.01-11.49-14.67-17.23-29.9-17.23-45.68,0-18.64,5.67-39.91,17.02-63.81,11.35-23.9,26.16-43.39,44.43-58.48,18.27-15.09,37.28-22.63,57.03-22.63,15.13,0,27.73,1.87,37.79,5.61,10.06,3.74,19.1,9.11,27.13,16.12,8.03,7.01,13.38,14.21,16.06,21.59,2.68,7.38,4.01,17.72,4.01,31,0,12.55-3.78,27.22-11.35,44.01-7.57,16.8-19.36,33.17-35.36,49.14-16.01,15.96-31.17,27.47-45.47,34.53-14.3,7.06-32.53,10.59-54.67,10.59Zm-31.28-68.93c0,12.83,4.06,23.62,12.18,32.39,8.12,8.77,17.53,13.15,28.24,13.15,27.87,0,53.47-12.82,76.82-38.48,23.34-25.65,35.02-52.87,35.02-81.66,0-10.98-2.15-19.63-6.44-25.95-4.29-6.32-11.19-11.72-20.69-16.19-9.5-4.47-20.16-6.71-31.97-6.71-20.67,0-41.36,14.03-62.08,42.08-20.72,28.05-31.07,55.18-31.07,81.39Z"/><path d="M351.95,395.79c-11.81,19.84-23.9,35.2-36.26,46.09-12.37,10.89-23.85,16.33-34.46,16.33-6.09,0-12.3-3.55-18.62-10.66-6.32-7.1-9.48-18.04-9.48-32.8,0-12.09,2.91-29.9,8.72-53.43,4.89-19.65,7.34-33.45,7.34-41.38,2.68-5.54,6.87-8.3,12.6-8.3,3.88,0,6.97,1.36,9.27,4.08,2.31,2.72,3.46,5.56,3.46,8.51,0,6.46-2.26,15.64-6.78,27.54-8.58,23.16-12.87,43.05-12.87,59.65,0,15.13,3.51,22.7,10.52,22.7,8.95,0,20.35-7.61,34.19-22.84,13.84-15.22,25.7-36.45,35.57-63.67,3.88-10.89,7.04-17.97,9.48-21.25,2.44-3.27,5.74-4.91,9.9-4.91,6.27,0,9.41,4.15,9.41,12.46,0,1.02-.88,4.38-2.63,10.1-5.54,20.21-8.3,39.31-8.3,57.3,0,21.59,3.55,35.57,10.66,41.94,3.69,3.42,5.54,6.18,5.54,8.3,0,2.58-1.87,4.94-5.61,7.06-3.74,2.12-7.13,3.18-10.17,3.18-6.46,0-11.67-4.8-15.64-14.4-3.97-9.6-5.95-23.76-5.95-42.49v-4.57c0-1.47,.05-3,.14-4.57Z"/><path d="M483.44,316.34c9.5-.74,18.45-1.61,26.85-2.63,8.3-.92,15.22-1.38,20.76-1.38,7.01,0,11.44,.65,13.29,1.94,1.84,1.29,2.77,3.55,2.77,6.78,0,7.47-5.21,11.54-15.64,12.18-13.38,.83-25.7,1.99-36.96,3.46-11.26,1.48-17.33,2.7-18.2,3.67-.88,.97-3.67,11.95-8.37,32.94-4.71,20.99-7.06,34.63-7.06,40.9,0,10.15,1.34,16.91,4.01,20.28,2.67,3.37,6.69,5.05,12.04,5.05,7.93,0,18.96-5.95,33.08-17.86,5.44-4.89,9.64-7.34,12.6-7.34,3.97,0,5.95,2.12,5.95,6.37,0,6.64-6.39,15.25-19.17,25.81-12.78,10.56-25.86,15.85-39.24,15.85-22.33,0-33.5-13.15-33.5-39.45,0-9.5,2.31-24.22,6.92-44.15,4.52-19.84,6.78-31.74,6.78-35.71,0-1.38-1.11-2.08-3.32-2.08l-14.4,1.25c-11.81,0-17.72-4.71-17.72-14.12,0-5.35,2.72-8.03,8.17-8.03h28.51c1.94,0,3.64-.88,5.12-2.63,1.48-1.75,3.64-7.63,6.51-17.65,2.86-10.01,5.4-19.91,7.61-29.69,2.21-9.69,6.55-14.53,13.01-14.53,3.97,0,7.06,1.38,9.27,4.15,2.21,2.77,3.32,5.35,3.32,7.75,0,1.29-1.66,7.89-4.98,19.79l-8.03,29.07Z"/><path d="M629.6,424.3c0-6-7.38-12.83-22.15-20.49-18.73-9.6-31.4-17.28-37.99-23.05-6.6-5.77-9.9-12.2-9.9-19.31,0-18.36,9.2-33.59,27.61-45.68,18.41-12.09,33.43-18.13,45.05-18.13,7.47,0,12.89,1.29,16.26,3.88,3.37,2.58,5.05,7.06,5.05,13.43,0,2.86-1.22,5.31-3.67,7.34-2.45,2.03-4.36,3.04-5.74,3.04-1.02,0-3-.69-5.95-2.08-2.95-1.29-4.89-1.94-5.81-1.94-4.62,0-13.98,3.37-28.1,10.1-14.12,6.74-21.18,14.35-21.18,22.84,0,5.17,2.49,9.85,7.47,14.05,4.98,4.2,13.93,9.34,26.85,15.43,10.43,4.98,18.75,10.31,24.98,15.99s9.34,12.34,9.34,20c0,14.12-9.74,25.17-29.21,33.15-19.47,7.98-38.06,11.97-55.78,11.97-14.95,0-22.42-5.08-22.42-15.23,0-3.51,1.68-6.09,5.05-7.75,3.37-1.66,6.76-2.49,10.17-2.49,1.38,0,4.01,.46,7.89,1.38,3.78,.92,6.27,1.38,7.47,1.38,10.24,0,21.22-1.71,32.94-5.12,11.72-3.41,18.96-7.66,21.73-12.73Z"/><path d="M706.7,425.27c0,7.01,.97,14.9,2.91,23.67,.37,1.66,.55,3.04,.55,4.15,0,1.66-1.52,3.81-4.57,6.44-3.04,2.63-6.28,3.95-9.69,3.95-8.95,0-13.43-8.21-13.43-24.64s3.51-43.83,10.52-80.55c2.4-12.82,3.6-20.71,3.6-23.67,0-5.81,1.06-10.77,3.18-14.88,2.12-4.1,5.12-6.16,9-6.16,4.71,0,8.42,1.13,11.14,3.39,2.72,2.26,4.08,4.77,4.08,7.54s-.65,6.41-1.94,10.93c-6.92,24.36-11.21,41.8-12.87,52.32-1.66,10.52-2.49,23.02-2.49,37.51Zm18.13-154.6c-1.94,0-3.42-2.08-4.43-6.23-.37-1.29-.88-2.72-1.52-4.29-2.49-6-3.74-11.21-3.74-15.64,0-3.69,2.19-7.45,6.57-11.28,4.38-3.83,9.25-5.74,14.6-5.74,2.67,0,5.67,1.04,9,3.11,3.32,2.08,4.98,4.08,4.98,6.02,0,3.04-1.13,8.21-3.39,15.5-2.26,7.29-5.86,12.2-10.8,14.74-4.94,2.54-8.7,3.81-11.28,3.81Z"/><path d="M861.44,398.7c-12.37,19.84-25.47,35.13-39.31,45.88-13.84,10.75-26.57,16.12-38.2,16.12-8.95,0-16.03-3.44-21.25-10.31-5.21-6.87-7.82-16.03-7.82-27.47,0-23.34,9.48-47.29,28.44-71.83,18.96-24.54,39.42-36.82,61.38-36.82,9.6,0,18.5,4.11,26.71,12.32l19.38-90.52c1.38-6.18,3.94-10.33,7.68-12.46,3.74-2.12,6.67-3.18,8.79-3.18,6.46,0,9.69,5.72,9.69,17.16,0,2.03-2.12,9.6-6.37,22.7-6.74,20.3-13.13,45.24-19.17,74.81-6.04,29.57-9.07,53.31-9.07,71.21s4.01,27.68,12.04,27.68c5.17,0,10.52-1.71,16.06-5.12,2.3-1.66,4.47-2.49,6.5-2.49,2.95,0,4.43,1.94,4.43,5.81,0,4.71-4.13,10.15-12.39,16.33-8.26,6.18-16.73,9.27-25.4,9.27-15.23,0-22.84-14.67-22.84-44.01,0-4.98,.23-10.01,.69-15.09Zm-18.13-64.78c-14.95,0-29.76,10.13-44.43,30.38-14.67,20.26-22.01,38.96-22.01,56.13,0,11.54,3.83,17.3,11.49,17.3,7.2,0,15.94-3.78,26.23-11.35,10.29-7.57,20.88-19.63,31.77-36.2,10.89-16.56,16.33-29,16.33-37.3,0-4.06-1.87-8.24-5.61-12.53-3.74-4.29-8.33-6.44-13.77-6.44Z"/><path d="M1068.09,409.08c0,9.41-8.33,20.76-24.98,34.05-16.66,13.29-33.84,19.93-51.56,19.93-14.86,0-26.32-4.38-34.39-13.15-8.08-8.77-12.11-20.99-12.11-36.68,0-26.39,8.9-51.49,26.71-75.29,17.81-23.81,37.28-35.71,58.41-35.71,6.92,0,12.57,2.26,16.96,6.78,4.38,4.52,6.57,9.97,6.57,16.33,0,14.21-6.97,27.82-20.9,40.83-13.93,13.01-32.57,25.79-55.92,38.34-4.8,2.49-7.2,5.72-7.2,9.69,0,7.66,2.21,13.8,6.64,18.41,4.43,4.62,10.98,6.92,19.65,6.92,19.84,0,40.09-10.98,60.76-32.94,3.04-3.04,5.35-4.57,6.92-4.57,2.95,0,4.43,2.35,4.43,7.06Zm-96.2-21.59c39.12-23.25,58.69-41.94,58.69-56.06,0-5.54-2.49-8.3-7.47-8.3-8.49,0-18.06,6.23-28.72,18.69-10.66,12.46-18.16,27.68-22.49,45.67Z"/><path d="M1124.97,401.05c.92-1.66,2.03-3.97,3.32-6.92,6.27-14.4,12.04-25.68,17.3-33.84,5.26-8.17,11.05-15.99,17.37-23.46,6.32-7.47,12.09-13.15,17.3-17.02,5.21-3.88,9.94-6.57,14.19-8.1,4.24-1.52,8.35-2.28,12.32-2.28,8.03,0,14.58,2.42,19.65,7.27,5.07,4.84,7.61,10.5,7.61,16.96,0,2.86-.9,5.45-2.7,7.75-1.8,2.31-4.55,3.46-8.24,3.46-3.88,0-7.43-1.71-10.66-5.12-3.32-3.41-6.78-5.12-10.38-5.12-9.6,0-22.88,11.63-39.86,34.88-16.98,23.25-27.31,48.86-31,76.82-.92,7.2-2.68,11.95-5.26,14.26-2.58,2.31-6.23,3.46-10.93,3.46s-7.8-3.37-9.83-10.1c-2.03-6.73-3.05-18.08-3.05-34.05,0-4.34,.23-13.89,.69-28.65,.55-17.44,1.66-31.51,3.32-42.22,.28-1.75,.74-5.86,1.38-12.32,.64-7.1,1.45-12.04,2.42-14.81s2.95-5.35,5.95-7.75c3-2.4,6.25-3.6,9.76-3.6s5.97,1.09,7.68,3.25c1.71,2.17,2.56,4.5,2.56,6.99,0,3.6-.92,8.67-2.77,15.23-2.12,7.29-3.37,12.32-3.74,15.09-.28,3.14-.79,6.41-1.52,9.83-.92,3.97-1.85,14.39-2.77,31.28l-.14,5.12v3.74Z"/><path d="M1311,424.3c0-6-7.38-12.83-22.15-20.49-18.73-9.6-31.4-17.28-37.99-23.05-6.6-5.77-9.9-12.2-9.9-19.31,0-18.36,9.2-33.59,27.61-45.68,18.41-12.09,33.43-18.13,45.05-18.13,7.47,0,12.89,1.29,16.26,3.88,3.37,2.58,5.05,7.06,5.05,13.43,0,2.86-1.22,5.31-3.67,7.34-2.45,2.03-4.36,3.04-5.74,3.04-1.02,0-3-.69-5.95-2.08-2.95-1.29-4.89-1.94-5.81-1.94-4.62,0-13.98,3.37-28.1,10.1-14.12,6.74-21.18,14.35-21.18,22.84,0,5.17,2.49,9.85,7.47,14.05,4.98,4.2,13.93,9.34,26.85,15.43,10.43,4.98,18.75,10.31,24.98,15.99s9.34,12.34,9.34,20c0,14.12-9.74,25.17-29.21,33.15-19.47,7.98-38.06,11.97-55.78,11.97-14.95,0-22.42-5.08-22.42-15.23,0-3.51,1.68-6.09,5.05-7.75,3.37-1.66,6.76-2.49,10.17-2.49,1.38,0,4.01,.46,7.89,1.38,3.78,.92,6.27,1.38,7.47,1.38,10.24,0,21.22-1.71,32.94-5.12,11.72-3.41,18.96-7.66,21.73-12.73Z"/></g><g><path class="cls-1" d="M80.11,465.96c-14.76,0-27.89-7.33-39.38-22.01-11.49-14.67-17.23-29.9-17.23-45.68,0-18.64,5.67-39.91,17.02-63.81,11.35-23.9,26.16-43.39,44.43-58.48,18.27-15.09,37.28-22.63,57.03-22.63,15.13,0,27.73,1.87,37.79,5.61,10.06,3.74,19.1,9.11,27.13,16.12,8.03,7.01,13.38,14.21,16.06,21.59,2.68,7.38,4.01,17.72,4.01,31,0,12.55-3.78,27.22-11.35,44.01-7.57,16.8-19.36,33.17-35.36,49.14-16.01,15.96-31.17,27.47-45.47,34.53-14.3,7.06-32.53,10.59-54.67,10.59Zm-31.28-68.93c0,12.83,4.06,23.62,12.18,32.39,8.12,8.77,17.53,13.15,28.24,13.15,27.87,0,53.47-12.82,76.82-38.48,23.34-25.65,35.02-52.87,35.02-81.66,0-10.98-2.15-19.63-6.44-25.95-4.29-6.32-11.19-11.72-20.69-16.19-9.5-4.47-20.16-6.71-31.97-6.71-20.67,0-41.36,14.03-62.08,42.08-20.72,28.05-31.07,55.18-31.07,81.39Z"/><path class="cls-1" d="M351.95,395.79c-11.81,19.84-23.9,35.2-36.26,46.09-12.37,10.89-23.85,16.33-34.46,16.33-6.09,0-12.3-3.55-18.62-10.66-6.32-7.1-9.48-18.04-9.48-32.8,0-12.09,2.91-29.9,8.72-53.43,4.89-19.65,7.34-33.45,7.34-41.38,2.68-5.54,6.87-8.3,12.6-8.3,3.88,0,6.97,1.36,9.27,4.08,2.31,2.72,3.46,5.56,3.46,8.51,0,6.46-2.26,15.64-6.78,27.54-8.58,23.16-12.87,43.05-12.87,59.65,0,15.13,3.51,22.7,10.52,22.7,8.95,0,20.35-7.61,34.19-22.84,13.84-15.22,25.7-36.45,35.57-63.67,3.88-10.89,7.04-17.97,9.48-21.25,2.44-3.27,5.74-4.91,9.9-4.91,6.27,0,9.41,4.15,9.41,12.46,0,1.02-.88,4.38-2.63,10.1-5.54,20.21-8.3,39.31-8.3,57.3,0,21.59,3.55,35.57,10.66,41.94,3.69,3.42,5.54,6.18,5.54,8.3,0,2.58-1.87,4.94-5.61,7.06-3.74,2.12-7.13,3.18-10.17,3.18-6.46,0-11.67-4.8-15.64-14.4-3.97-9.6-5.95-23.76-5.95-42.49v-4.57c0-1.47,.05-3,.14-4.57Z"/><path class="cls-1" d="M483.44,316.34c9.5-.74,18.45-1.61,26.85-2.63,8.3-.92,15.22-1.38,20.76-1.38,7.01,0,11.44,.65,13.29,1.94,1.84,1.29,2.77,3.55,2.77,6.78,0,7.47-5.21,11.54-15.64,12.18-13.38,.83-25.7,1.99-36.96,3.46-11.26,1.48-17.33,2.7-18.2,3.67-.88,.97-3.67,11.95-8.37,32.94-4.71,20.99-7.06,34.63-7.06,40.9,0,10.15,1.34,16.91,4.01,20.28,2.67,3.37,6.69,5.05,12.04,5.05,7.93,0,18.96-5.95,33.08-17.86,5.44-4.89,9.64-7.34,12.6-7.34,3.97,0,5.95,2.12,5.95,6.37,0,6.64-6.39,15.25-19.17,25.81-12.78,10.56-25.86,15.85-39.24,15.85-22.33,0-33.5-13.15-33.5-39.45,0-9.5,2.31-24.22,6.92-44.15,4.52-19.84,6.78-31.74,6.78-35.71,0-1.38-1.11-2.08-3.32-2.08l-14.4,1.25c-11.81,0-17.72-4.71-17.72-14.12,0-5.35,2.72-8.03,8.17-8.03h28.51c1.94,0,3.64-.88,5.12-2.63,1.48-1.75,3.64-7.63,6.51-17.65,2.86-10.01,5.4-19.91,7.61-29.69,2.21-9.69,6.55-14.53,13.01-14.53,3.97,0,7.06,1.38,9.27,4.15,2.21,2.77,3.32,5.35,3.32,7.75,0,1.29-1.66,7.89-4.98,19.79l-8.03,29.07Z"/><path class="cls-1" d="M629.6,424.3c0-6-7.38-12.83-22.15-20.49-18.73-9.6-31.4-17.28-37.99-23.05-6.6-5.77-9.9-12.2-9.9-19.31,0-18.36,9.2-33.59,27.61-45.68,18.41-12.09,33.43-18.13,45.05-18.13,7.47,0,12.89,1.29,16.26,3.88,3.37,2.58,5.05,7.06,5.05,13.43,0,2.86-1.22,5.31-3.67,7.34-2.45,2.03-4.36,3.04-5.74,3.04-1.02,0-3-.69-5.95-2.08-2.95-1.29-4.89-1.94-5.81-1.94-4.62,0-13.98,3.37-28.1,10.1-14.12,6.74-21.18,14.35-21.18,22.84,0,5.17,2.49,9.85,7.47,14.05,4.98,4.2,13.93,9.34,26.85,15.43,10.43,4.98,18.75,10.31,24.98,15.99s9.34,12.34,9.34,20c0,14.12-9.74,25.17-29.21,33.15-19.47,7.98-38.06,11.97-55.78,11.97-14.95,0-22.42-5.08-22.42-15.23,0-3.51,1.68-6.09,5.05-7.75,3.37-1.66,6.76-2.49,10.17-2.49,1.38,0,4.01,.46,7.89,1.38,3.78,.92,6.27,1.38,7.47,1.38,10.24,0,21.22-1.71,32.94-5.12,11.72-3.41,18.96-7.66,21.73-12.73Z"/><path class="cls-1" d="M706.7,425.27c0,7.01,.97,14.9,2.91,23.67,.37,1.66,.55,3.04,.55,4.15,0,1.66-1.52,3.81-4.57,6.44-3.04,2.63-6.28,3.95-9.69,3.95-8.95,0-13.43-8.21-13.43-24.64s3.51-43.83,10.52-80.55c2.4-12.82,3.6-20.71,3.6-23.67,0-5.81,1.06-10.77,3.18-14.88,2.12-4.1,5.12-6.16,9-6.16,4.71,0,8.42,1.13,11.14,3.39,2.72,2.26,4.08,4.77,4.08,7.54s-.65,6.41-1.94,10.93c-6.92,24.36-11.21,41.8-12.87,52.32-1.66,10.52-2.49,23.02-2.49,37.51Zm18.13-154.6c-1.94,0-3.42-2.08-4.43-6.23-.37-1.29-.88-2.72-1.52-4.29-2.49-6-3.74-11.21-3.74-15.64,0-3.69,2.19-7.45,6.57-11.28,4.38-3.83,9.25-5.74,14.6-5.74,2.67,0,5.67,1.04,9,3.11,3.32,2.08,4.98,4.08,4.98,6.02,0,3.04-1.13,8.21-3.39,15.5-2.26,7.29-5.86,12.2-10.8,14.74-4.94,2.54-8.7,3.81-11.28,3.81Z"/><path class="cls-1" d="M861.44,398.7c-12.37,19.84-25.47,35.13-39.31,45.88-13.84,10.75-26.57,16.12-38.2,16.12-8.95,0-16.03-3.44-21.25-10.31-5.21-6.87-7.82-16.03-7.82-27.47,0-23.34,9.48-47.29,28.44-71.83,18.96-24.54,39.42-36.82,61.38-36.82,9.6,0,18.5,4.11,26.71,12.32l19.38-90.52c1.38-6.18,3.94-10.33,7.68-12.46,3.74-2.12,6.67-3.18,8.79-3.18,6.46,0,9.69,5.72,9.69,17.16,0,2.03-2.12,9.6-6.37,22.7-6.74,20.3-13.13,45.24-19.17,74.81-6.04,29.57-9.07,53.31-9.07,71.21s4.01,27.68,12.04,27.68c5.17,0,10.52-1.71,16.06-5.12,2.3-1.66,4.47-2.49,6.5-2.49,2.95,0,4.43,1.94,4.43,5.81,0,4.71-4.13,10.15-12.39,16.33-8.26,6.18-16.73,9.27-25.4,9.27-15.23,0-22.84-14.67-22.84-44.01,0-4.98,.23-10.01,.69-15.09Zm-18.13-64.78c-14.95,0-29.76,10.13-44.43,30.38-14.67,20.26-22.01,38.96-22.01,56.13,0,11.54,3.83,17.3,11.49,17.3,7.2,0,15.94-3.78,26.23-11.35,10.29-7.57,20.88-19.63,31.77-36.2,10.89-16.56,16.33-29,16.33-37.3,0-4.06-1.87-8.24-5.61-12.53-3.74-4.29-8.33-6.44-13.77-6.44Z"/><path class="cls-1" d="M1068.09,409.08c0,9.41-8.33,20.76-24.98,34.05-16.66,13.29-33.84,19.93-51.56,19.93-14.86,0-26.32-4.38-34.39-13.15-8.08-8.77-12.11-20.99-12.11-36.68,0-26.39,8.9-51.49,26.71-75.29,17.81-23.81,37.28-35.71,58.41-35.71,6.92,0,12.57,2.26,16.96,6.78,4.38,4.52,6.57,9.97,6.57,16.33,0,14.21-6.97,27.82-20.9,40.83-13.93,13.01-32.57,25.79-55.92,38.34-4.8,2.49-7.2,5.72-7.2,9.69,0,7.66,2.21,13.8,6.64,18.41,4.43,4.62,10.98,6.92,19.65,6.92,19.84,0,40.09-10.98,60.76-32.94,3.04-3.04,5.35-4.57,6.92-4.57,2.95,0,4.43,2.35,4.43,7.06Zm-96.2-21.59c39.12-23.25,58.69-41.94,58.69-56.06,0-5.54-2.49-8.3-7.47-8.3-8.49,0-18.06,6.23-28.72,18.69-10.66,12.46-18.16,27.68-22.49,45.67Z"/><path class="cls-1" d="M1124.97,401.05c.92-1.66,2.03-3.97,3.32-6.92,6.27-14.4,12.04-25.68,17.3-33.84,5.26-8.17,11.05-15.99,17.37-23.46,6.32-7.47,12.09-13.15,17.3-17.02,5.21-3.88,9.94-6.57,14.19-8.1,4.24-1.52,8.35-2.28,12.32-2.28,8.03,0,14.58,2.42,19.65,7.27,5.07,4.84,7.61,10.5,7.61,16.96,0,2.86-.9,5.45-2.7,7.75-1.8,2.31-4.55,3.46-8.24,3.46-3.88,0-7.43-1.71-10.66-5.12-3.32-3.41-6.78-5.12-10.38-5.12-9.6,0-22.88,11.63-39.86,34.88-16.98,23.25-27.31,48.86-31,76.82-.92,7.2-2.68,11.95-5.26,14.26-2.58,2.31-6.23,3.46-10.93,3.46s-7.8-3.37-9.83-10.1c-2.03-6.73-3.05-18.08-3.05-34.05,0-4.34,.23-13.89,.69-28.65,.55-17.44,1.66-31.51,3.32-42.22,.28-1.75,.74-5.86,1.38-12.32,.64-7.1,1.45-12.04,2.42-14.81s2.95-5.35,5.95-7.75c3-2.4,6.25-3.6,9.76-3.6s5.97,1.09,7.68,3.25c1.71,2.17,2.56,4.5,2.56,6.99,0,3.6-.92,8.67-2.77,15.23-2.12,7.29-3.37,12.32-3.74,15.09-.28,3.14-.79,6.41-1.52,9.83-.92,3.97-1.85,14.39-2.77,31.28l-.14,5.12v3.74Z"/><path class="cls-1" d="M1311,424.3c0-6-7.38-12.83-22.15-20.49-18.73-9.6-31.4-17.28-37.99-23.05-6.6-5.77-9.9-12.2-9.9-19.31,0-18.36,9.2-33.59,27.61-45.68,18.41-12.09,33.43-18.13,45.05-18.13,7.47,0,12.89,1.29,16.26,3.88,3.37,2.58,5.05,7.06,5.05,13.43,0,2.86-1.22,5.31-3.67,7.34-2.45,2.03-4.36,3.04-5.74,3.04-1.02,0-3-.69-5.95-2.08-2.95-1.29-4.89-1.94-5.81-1.94-4.62,0-13.98,3.37-28.1,10.1-14.12,6.74-21.18,14.35-21.18,22.84,0,5.17,2.49,9.85,7.47,14.05,4.98,4.2,13.93,9.34,26.85,15.43,10.43,4.98,18.75,10.31,24.98,15.99s9.34,12.34,9.34,20c0,14.12-9.74,25.17-29.21,33.15-19.47,7.98-38.06,11.97-55.78,11.97-14.95,0-22.42-5.08-22.42-15.23,0-3.51,1.68-6.09,5.05-7.75,3.37-1.66,6.76-2.49,10.17-2.49,1.38,0,4.01,.46,7.89,1.38,3.78,.92,6.27,1.38,7.47,1.38,10.24,0,21.22-1.71,32.94-5.12,11.72-3.41,18.96-7.66,21.73-12.73Z"/></g><g><path class="cls-2" d="M80.11,465.96c-14.76,0-27.89-7.33-39.38-22.01-11.49-14.67-17.23-29.9-17.23-45.68,0-18.64,5.67-39.91,17.02-63.81,11.35-23.9,26.16-43.39,44.43-58.48,18.27-15.09,37.28-22.63,57.03-22.63,15.13,0,27.73,1.87,37.79,5.61,10.06,3.74,19.1,9.11,27.13,16.12,8.03,7.01,13.38,14.21,16.06,21.59,2.68,7.38,4.01,17.72,4.01,31,0,12.55-3.78,27.22-11.35,44.01-7.57,16.8-19.36,33.17-35.36,49.14-16.01,15.96-31.17,27.47-45.47,34.53-14.3,7.06-32.53,10.59-54.67,10.59Zm-31.28-68.93c0,12.83,4.06,23.62,12.18,32.39,8.12,8.77,17.53,13.15,28.24,13.15,27.87,0,53.47-12.82,76.82-38.48,23.34-25.65,35.02-52.87,35.02-81.66,0-10.98-2.15-19.63-6.44-25.95-4.29-6.32-11.19-11.72-20.69-16.19-9.5-4.47-20.16-6.71-31.97-6.71-20.67,0-41.36,14.03-62.08,42.08-20.72,28.05-31.07,55.18-31.07,81.39Z"/><path class="cls-2" d="M351.95,395.79c-11.81,19.84-23.9,35.2-36.26,46.09-12.37,10.89-23.85,16.33-34.46,16.33-6.09,0-12.3-3.55-18.62-10.66-6.32-7.1-9.48-18.04-9.48-32.8,0-12.09,2.91-29.9,8.72-53.43,4.89-19.65,7.34-33.45,7.34-41.38,2.68-5.54,6.87-8.3,12.6-8.3,3.88,0,6.97,1.36,9.27,4.08,2.31,2.72,3.46,5.56,3.46,8.51,0,6.46-2.26,15.64-6.78,27.54-8.58,23.16-12.87,43.05-12.87,59.65,0,15.13,3.51,22.7,10.52,22.7,8.95,0,20.35-7.61,34.19-22.84,13.84-15.22,25.7-36.45,35.57-63.67,3.88-10.89,7.04-17.97,9.48-21.25,2.44-3.27,5.74-4.91,9.9-4.91,6.27,0,9.41,4.15,9.41,12.46,0,1.02-.88,4.38-2.63,10.1-5.54,20.21-8.3,39.31-8.3,57.3,0,21.59,3.55,35.57,10.66,41.94,3.69,3.42,5.54,6.18,5.54,8.3,0,2.58-1.87,4.94-5.61,7.06-3.74,2.12-7.13,3.18-10.17,3.18-6.46,0-11.67-4.8-15.64-14.4-3.97-9.6-5.95-23.76-5.95-42.49v-4.57c0-1.47,.05-3,.14-4.57Z"/><path class="cls-2" d="M483.44,316.34c9.5-.74,18.45-1.61,26.85-2.63,8.3-.92,15.22-1.38,20.76-1.38,7.01,0,11.44,.65,13.29,1.94,1.84,1.29,2.77,3.55,2.77,6.78,0,7.47-5.21,11.54-15.64,12.18-13.38,.83-25.7,1.99-36.96,3.46-11.26,1.48-17.33,2.7-18.2,3.67-.88,.97-3.67,11.95-8.37,32.94-4.71,20.99-7.06,34.63-7.06,40.9,0,10.15,1.34,16.91,4.01,20.28,2.67,3.37,6.69,5.05,12.04,5.05,7.93,0,18.96-5.95,33.08-17.86,5.44-4.89,9.64-7.34,12.6-7.34,3.97,0,5.95,2.12,5.95,6.37,0,6.64-6.39,15.25-19.17,25.81-12.78,10.56-25.86,15.85-39.24,15.85-22.33,0-33.5-13.15-33.5-39.45,0-9.5,2.31-24.22,6.92-44.15,4.52-19.84,6.78-31.74,6.78-35.71,0-1.38-1.11-2.08-3.32-2.08l-14.4,1.25c-11.81,0-17.72-4.71-17.72-14.12,0-5.35,2.72-8.03,8.17-8.03h28.51c1.94,0,3.64-.88,5.12-2.63,1.48-1.75,3.64-7.63,6.51-17.65,2.86-10.01,5.4-19.91,7.61-29.69,2.21-9.69,6.55-14.53,13.01-14.53,3.97,0,7.06,1.38,9.27,4.15,2.21,2.77,3.32,5.35,3.32,7.75,0,1.29-1.66,7.89-4.98,19.79l-8.03,29.07Z"/><path class="cls-2" d="M629.6,424.3c0-6-7.38-12.83-22.15-20.49-18.73-9.6-31.4-17.28-37.99-23.05-6.6-5.77-9.9-12.2-9.9-19.31,0-18.36,9.2-33.59,27.61-45.68,18.41-12.09,33.43-18.13,45.05-18.13,7.47,0,12.89,1.29,16.26,3.88,3.37,2.58,5.05,7.06,5.05,13.43,0,2.86-1.22,5.31-3.67,7.34-2.45,2.03-4.36,3.04-5.74,3.04-1.02,0-3-.69-5.95-2.08-2.95-1.29-4.89-1.94-5.81-1.94-4.62,0-13.98,3.37-28.1,10.1-14.12,6.74-21.18,14.35-21.18,22.84,0,5.17,2.49,9.85,7.47,14.05,4.98,4.2,13.93,9.34,26.85,15.43,10.43,4.98,18.75,10.31,24.98,15.99s9.34,12.34,9.34,20c0,14.12-9.74,25.17-29.21,33.15-19.47,7.98-38.06,11.97-55.78,11.97-14.95,0-22.42-5.08-22.42-15.23,0-3.51,1.68-6.09,5.05-7.75,3.37-1.66,6.76-2.49,10.17-2.49,1.38,0,4.01,.46,7.89,1.38,3.78,.92,6.27,1.38,7.47,1.38,10.24,0,21.22-1.71,32.94-5.12,11.72-3.41,18.96-7.66,21.73-12.73Z"/><path class="cls-2" d="M706.7,425.27c0,7.01,.97,14.9,2.91,23.67,.37,1.66,.55,3.04,.55,4.15,0,1.66-1.52,3.81-4.57,6.44-3.04,2.63-6.28,3.95-9.69,3.95-8.95,0-13.43-8.21-13.43-24.64s3.51-43.83,10.52-80.55c2.4-12.82,3.6-20.71,3.6-23.67,0-5.81,1.06-10.77,3.18-14.88,2.12-4.1,5.12-6.16,9-6.16,4.71,0,8.42,1.13,11.14,3.39,2.72,2.26,4.08,4.77,4.08,7.54s-.65,6.41-1.94,10.93c-6.92,24.36-11.21,41.8-12.87,52.32-1.66,10.52-2.49,23.02-2.49,37.51Zm18.13-154.6c-1.94,0-3.42-2.08-4.43-6.23-.37-1.29-.88-2.72-1.52-4.29-2.49-6-3.74-11.21-3.74-15.64,0-3.69,2.19-7.45,6.57-11.28,4.38-3.83,9.25-5.74,14.6-5.74,2.67,0,5.67,1.04,9,3.11,3.32,2.08,4.98,4.08,4.98,6.02,0,3.04-1.13,8.21-3.39,15.5-2.26,7.29-5.86,12.2-10.8,14.74-4.94,2.54-8.7,3.81-11.28,3.81Z"/><path class="cls-2" d="M861.44,398.7c-12.37,19.84-25.47,35.13-39.31,45.88-13.84,10.75-26.57,16.12-38.2,16.12-8.95,0-16.03-3.44-21.25-10.31-5.21-6.87-7.82-16.03-7.82-27.47,0-23.34,9.48-47.29,28.44-71.83,18.96-24.54,39.42-36.82,61.38-36.82,9.6,0,18.5,4.11,26.71,12.32l19.38-90.52c1.38-6.18,3.94-10.33,7.68-12.46,3.74-2.12,6.67-3.18,8.79-3.18,6.46,0,9.69,5.72,9.69,17.16,0,2.03-2.12,9.6-6.37,22.7-6.74,20.3-13.13,45.24-19.17,74.81-6.04,29.57-9.07,53.31-9.07,71.21s4.01,27.68,12.04,27.68c5.17,0,10.52-1.71,16.06-5.12,2.3-1.66,4.47-2.49,6.5-2.49,2.95,0,4.43,1.94,4.43,5.81,0,4.71-4.13,10.15-12.39,16.33-8.26,6.18-16.73,9.27-25.4,9.27-15.23,0-22.84-14.67-22.84-44.01,0-4.98,.23-10.01,.69-15.09Zm-18.13-64.78c-14.95,0-29.76,10.13-44.43,30.38-14.67,20.26-22.01,38.96-22.01,56.13,0,11.54,3.83,17.3,11.49,17.3,7.2,0,15.94-3.78,26.23-11.35,10.29-7.57,20.88-19.63,31.77-36.2,10.89-16.56,16.33-29,16.33-37.3,0-4.06-1.87-8.24-5.61-12.53-3.74-4.29-8.33-6.44-13.77-6.44Z"/><path class="cls-2" d="M1068.09,409.08c0,9.41-8.33,20.76-24.98,34.05-16.66,13.29-33.84,19.93-51.56,19.93-14.86,0-26.32-4.38-34.39-13.15-8.08-8.77-12.11-20.99-12.11-36.68,0-26.39,8.9-51.49,26.71-75.29,17.81-23.81,37.28-35.71,58.41-35.71,6.92,0,12.57,2.26,16.96,6.78,4.38,4.52,6.57,9.97,6.57,16.33,0,14.21-6.97,27.82-20.9,40.83-13.93,13.01-32.57,25.79-55.92,38.34-4.8,2.49-7.2,5.72-7.2,9.69,0,7.66,2.21,13.8,6.64,18.41,4.43,4.62,10.98,6.92,19.65,6.92,19.84,0,40.09-10.98,60.76-32.94,3.04-3.04,5.35-4.57,6.92-4.57,2.95,0,4.43,2.35,4.43,7.06Zm-96.2-21.59c39.12-23.25,58.69-41.94,58.69-56.06,0-5.54-2.49-8.3-7.47-8.3-8.49,0-18.06,6.23-28.72,18.69-10.66,12.46-18.16,27.68-22.49,45.67Z"/><path class="cls-2" d="M1124.97,401.05c.92-1.66,2.03-3.97,3.32-6.92,6.27-14.4,12.04-25.68,17.3-33.84,5.26-8.17,11.05-15.99,17.37-23.46,6.32-7.47,12.09-13.15,17.3-17.02,5.21-3.88,9.94-6.57,14.19-8.1,4.24-1.52,8.35-2.28,12.32-2.28,8.03,0,14.58,2.42,19.65,7.27,5.07,4.84,7.61,10.5,7.61,16.96,0,2.86-.9,5.45-2.7,7.75-1.8,2.31-4.55,3.46-8.24,3.46-3.88,0-7.43-1.71-10.66-5.12-3.32-3.41-6.78-5.12-10.38-5.12-9.6,0-22.88,11.63-39.86,34.88-16.98,23.25-27.31,48.86-31,76.82-.92,7.2-2.68,11.95-5.26,14.26-2.58,2.31-6.23,3.46-10.93,3.46s-7.8-3.37-9.83-10.1c-2.03-6.73-3.05-18.08-3.05-34.05,0-4.34,.23-13.89,.69-28.65,.55-17.44,1.66-31.51,3.32-42.22,.28-1.75,.74-5.86,1.38-12.32,.64-7.1,1.45-12.04,2.42-14.81s2.95-5.35,5.95-7.75c3-2.4,6.25-3.6,9.76-3.6s5.97,1.09,7.68,3.25c1.71,2.17,2.56,4.5,2.56,6.99,0,3.6-.92,8.67-2.77,15.23-2.12,7.29-3.37,12.32-3.74,15.09-.28,3.14-.79,6.41-1.52,9.83-.92,3.97-1.85,14.39-2.77,31.28l-.14,5.12v3.74Z"/><path class="cls-2" d="M1311,424.3c0-6-7.38-12.83-22.15-20.49-18.73-9.6-31.4-17.28-37.99-23.05-6.6-5.77-9.9-12.2-9.9-19.31,0-18.36,9.2-33.59,27.61-45.68,18.41-12.09,33.43-18.13,45.05-18.13,7.47,0,12.89,1.29,16.26,3.88,3.37,2.58,5.05,7.06,5.05,13.43,0,2.86-1.22,5.31-3.67,7.34-2.45,2.03-4.36,3.04-5.74,3.04-1.02,0-3-.69-5.95-2.08-2.95-1.29-4.89-1.94-5.81-1.94-4.62,0-13.98,3.37-28.1,10.1-14.12,6.74-21.18,14.35-21.18,22.84,0,5.17,2.49,9.85,7.47,14.05,4.98,4.2,13.93,9.34,26.85,15.43,10.43,4.98,18.75,10.31,24.98,15.99s9.34,12.34,9.34,20c0,14.12-9.74,25.17-29.21,33.15-19.47,7.98-38.06,11.97-55.78,11.97-14.95,0-22.42-5.08-22.42-15.23,0-3.51,1.68-6.09,5.05-7.75,3.37-1.66,6.76-2.49,10.17-2.49,1.38,0,4.01,.46,7.89,1.38,3.78,.92,6.27,1.38,7.47,1.38,10.24,0,21.22-1.71,32.94-5.12,11.72-3.41,18.96-7.66,21.73-12.73Z"/></g></svg>